<svg width="100" height="24" viewBox="0 0 100 24" fill="none" xmlns="http://www.w3.org/2000/svg">
<path fill-rule="evenodd" clip-rule="evenodd" d="M5 3H19C20.1046 3 21 3.89543 21 5V19C21 20.1046 20.1046 21 19 21H5C3.89543 21 3 20.1046 3 19V5C3 3.89543 3.89543 3 5 3ZM8 18C8.27614 18 8.5 17.7761 8.5 17.5V10.5C8.5 10.2239 8.27614 10 8 10H6.5C6.22386 10 6 10.2239 6 10.5V17.5C6 17.7761 6.22386 18 6.5 18H8ZM7.25 9C6.42157 9 5.75 8.32843 5.75 7.5C5.75 6.67157 6.42157 6 7.25 6C8.07843 6 8.75 6.67157 8.75 7.5C8.75 8.32843 8.07843 9 7.25 9ZM17.5 18C17.7761 18 18 17.7761 18 17.5V12.9C18.0325 11.3108 16.8576 9.95452 15.28 9.76C14.177 9.65925 13.1083 10.1744 12.5 11.1V10.5C12.5 10.2239 12.2761 10 12 10H10.5C10.2239 10 10 10.2239 10 10.5V17.5C10 17.7761 10.2239 18 10.5 18H12C12.2761 18 12.5 17.7761 12.5 17.5V13.75C12.5 12.9216 13.1716 12.25 14 12.25C14.8284 12.25 15.5 12.9216 15.5 13.75V17.5C15.5 17.7761 15.7239 18 16 18H17.5Z" fill="black"/>
<path d="M58.9728 6.7174C58.5084 7.33692 57.947 7.87733 57.3103 8.31776C57.3103 8.47959 57.3103 8.64142 57.3103 8.81225C57.3154 11.7511 56.1415 14.5691 54.0518 16.6345C51.962 18.6999 49.1312 19.8399 46.1941 19.7989C44.496 19.8046 42.8197 19.4169 41.2964 18.6661C41.2143 18.6302 41.1613 18.549 41.1616 18.4593V18.3604C41.1616 18.2313 41.2662 18.1267 41.3953 18.1267C43.0644 18.0716 44.674 17.4929 45.9963 16.4724C44.4855 16.4419 43.1262 15.5469 42.5006 14.1707C42.469 14.0956 42.4788 14.0093 42.5266 13.9432C42.5743 13.8771 42.653 13.8407 42.7343 13.8471C43.1934 13.8932 43.6572 13.8505 44.1002 13.7212C42.4324 13.375 41.1792 11.9904 40.9999 10.2957C40.9935 10.2144 41.0299 10.1357 41.096 10.0879C41.1621 10.0402 41.2482 10.0303 41.3234 10.062C41.7709 10.2595 42.2541 10.3635 42.7432 10.3676C41.2818 9.40846 40.6506 7.58405 41.2066 5.92622C41.2639 5.76513 41.4018 5.64612 41.5695 5.61294C41.7372 5.57975 41.91 5.63728 42.0243 5.76439C43.9964 7.86325 46.706 9.11396 49.5819 9.25279C49.5083 8.95885 49.4721 8.65676 49.4741 8.35372C49.501 6.76472 50.4842 5.34921 51.9634 4.76987C53.4425 4.19054 55.1249 4.56203 56.223 5.71044C56.9714 5.56785 57.695 5.31645 58.3707 4.96421C58.4202 4.93331 58.483 4.93331 58.5325 4.96421C58.5634 5.01373 58.5634 5.07652 58.5325 5.12604C58.2052 5.87552 57.6523 6.50412 56.9509 6.92419C57.5651 6.85296 58.1685 6.70807 58.7482 6.49264C58.797 6.45942 58.8611 6.45942 58.9099 6.49264C58.9508 6.51134 58.9814 6.54711 58.9935 6.59042C59.0056 6.63373 58.998 6.68018 58.9728 6.7174Z" fill="black"/>
<path fill-rule="evenodd" clip-rule="evenodd" d="M88 3C83.0314 3 79 7.03145 79 12C79 16.9686 83.0314 21 88 21C92.9588 21 97 16.9686 97 12C97 7.03145 92.9588 3 88 3ZM93.9447 7.14859C95.0184 8.45662 95.6627 10.1258 95.6822 11.9317C95.4284 11.8829 92.8904 11.3655 90.333 11.6876C90.2744 11.5607 90.2256 11.4241 90.167 11.2874C90.0108 10.9165 89.8352 10.5358 89.6594 10.1746C92.4902 9.0228 93.7787 7.36334 93.9447 7.14859ZM88 4.32755C89.9523 4.32755 91.7386 5.05966 93.0955 6.26031C92.9588 6.45553 91.7972 8.00759 89.064 9.03253C87.8048 6.71909 86.4089 4.82538 86.1942 4.53254C86.77 4.39588 87.3753 4.32755 88 4.32755ZM84.73 5.04989C84.9349 5.32321 86.3015 7.22668 87.5803 9.49131C83.9881 10.448 80.8156 10.4284 80.474 10.4284C80.9718 8.04664 82.5824 6.06507 84.73 5.04989ZM80.308 12.0098C80.308 11.9317 80.308 11.8536 80.308 11.7755C80.6399 11.7852 84.3688 11.8341 88.205 10.6822C88.4295 11.1117 88.6345 11.551 88.8297 11.9902C88.7321 12.0195 88.6247 12.0488 88.5271 12.0781C84.564 13.3568 82.4555 16.8514 82.2798 17.1442C81.0596 15.7874 80.308 13.9816 80.308 12.0098ZM88 19.692C86.2234 19.692 84.5835 19.0868 83.2853 18.0716C83.4219 17.7885 84.9837 14.782 89.3178 13.269C89.3373 13.2592 89.3471 13.2592 89.3666 13.2495C90.4501 16.051 90.8894 18.4034 91.0065 19.077C90.0792 19.4772 89.064 19.692 88 19.692ZM92.2852 18.3742C92.2072 17.9056 91.7972 15.6605 90.7917 12.898C93.2028 12.5173 95.3113 13.1421 95.5749 13.23C95.243 15.3677 94.013 17.2126 92.2852 18.3742Z" fill="black"/>
</svg>
